<svg xmlns="http://www.w3.org/2000/svg" viewBox="0 0 552.36 345.77"><defs><style>.cls-1{fill:#fff;}</style></defs><title>logoRecurso 2</title><g id="Capa_2" data-name="Capa 2"><g id="Capa_1-2" data-name="Capa 1"><path class="cls-1" d="M320.52,345.77h41.69V250.29l75.34,95.48H552.36L425.68,185.22Q470,185,495.12,174t38.68-32.36Q547.33,120.28,547.33,92q0-33.88-19.64-57.07t-51-30.24Q455.86,0,397.18,0H227.25V166.91L106.05,0H0V315.57l22,30.2H129.64V181.69L249.26,345.77h70.2m49.36-194.34-7.18-.05V34q34.13.69,50,6a61.54,61.54,0,0,1,29.51,20.33,49.8,49.8,0,0,1,11.24,31.62,51.77,51.77,0,0,1-11.1,32.32q-11.1,14.46-30.91,21Q395.58,150.19,368.82,151.43Z"/></g></g></svg>